<svg width="71" height="71" viewBox="0 0 71 71" fill="none" xmlns="http://www.w3.org/2000/svg">
<circle cx="35.5" cy="35.5" r="35.5" fill="#549B48"/>
<path d="M43.873 27.373C43.5508 27.7168 43.2178 28.082 42.874 28.4687C42.5303 28.8555 42.0952 29.3711 41.5688 30.0156C41.0425 30.6602 40.6182 31.3047 40.2959 31.9492C39.9736 32.5937 39.8125 33.1523 39.8125 33.625C39.8125 34.2051 38.8081 34.6938 36.7993 35.0913C34.7905 35.4888 32.3574 35.6875 29.5 35.6875C26.6426 35.6875 24.2095 35.4888 22.2007 35.0913C20.1919 34.6938 19.1875 34.2051 19.1875 33.625C19.1875 33.002 18.8975 32.2231 18.3174 31.2886C17.7373 30.354 17.1948 29.6021 16.6899 29.0327C16.1851 28.4634 15.6855 27.9316 15.1914 27.4375C13.7305 26.0195 13 24.3008 13 22.2812C13 20.2832 13.7036 18.5806 15.1108 17.1733C16.5181 15.7661 18.2207 15.0625 20.2187 15.0625C20.7129 15.0625 21.2285 15.1162 21.7656 15.2236C21.4219 16.1045 21.25 17.082 21.25 18.1562C21.25 20.4551 21.959 22.3672 23.377 23.8926C23.334 22.7324 23.3125 21.5078 23.3125 20.2187C23.3125 18.2207 23.9141 16.5181 25.1172 15.1108C26.3203 13.7036 27.7812 13 29.5 13C31.2187 13 32.6797 13.7036 33.8828 15.1108C35.0859 16.5181 35.6875 18.2207 35.6875 20.2187C35.6875 21.5293 35.666 22.7539 35.623 23.8926C37.041 22.3672 37.75 20.4551 37.75 18.1562C37.75 17.082 37.5781 16.1045 37.2344 15.2236C37.7715 15.1162 38.2871 15.0625 38.7812 15.0625C40.7793 15.0625 42.4819 15.7661 43.8892 17.1733C45.2964 18.5806 46 20.2832 46 22.2812C46 24.2793 45.291 25.9766 43.873 27.373ZM29.4839 37.75C32.3306 37.75 34.7637 37.5459 36.7832 37.1377C38.8027 36.7295 39.8125 36.2461 39.8125 35.6875V43.9375C39.8125 44.4961 38.8027 44.9795 36.7832 45.3877C34.7637 45.7959 32.3306 46 29.4839 46C26.6372 46 24.2095 45.7959 22.2007 45.3877C20.1919 44.9795 19.1875 44.4961 19.1875 43.9375V35.6875C19.1875 36.2676 20.1919 36.7563 22.2007 37.1538C24.2095 37.5513 26.6372 37.75 29.4839 37.75Z" fill="white"/>
<path d="M55.5389 33.0791C55.8811 32.737 56.2872 32.4656 56.7342 32.2805C57.1812 32.0953 57.6603 32 58.1441 32C58.628 32 59.107 32.0953 59.554 32.2805C60.001 32.4656 60.4072 32.737 60.7493 33.0791C61.0914 33.4212 61.3628 33.8274 61.548 34.2744C61.7331 34.7214 61.8284 35.2005 61.8284 35.6843C61.8284 36.1681 61.7331 36.6472 61.548 37.0942C61.3628 37.5412 61.0914 37.9474 60.7493 38.2895L43.1643 55.8745L36 57.8284L37.9539 50.6642L55.5389 33.0791Z" stroke="white" stroke-width="2" stroke-linecap="round" stroke-linejoin="round"/>
</svg>
